# xmcd CD database file
#
# Track frame offsets:
#	150
#	11895
#	31705
#	49390
#	59842
#	79645
#	92765
#	106497
#	125460
#	142250
#	152767
#	163720
#
# Disc length: 2419 seconds
#
# Revision: 1
# Processed by: cddbd v1.5.2PL0 Copyright (c) Steve Scherf et al.
# Submitted via: CDex 1.70beta2
#
DISCID=a509710c
DTITLE=Jet Stream - Jet Stream 1
DYEAR=1900
DGENRE=Lounge
TTITLE0=ミスター・ロンリー
TTITLE1=愛のテーマ
TTITLE2=恋よさよなら
TTITLE3=風のささやき
TTITLE4=スーパーマン
TTITLE5=サントワマミー
TTITLE6=碧空
TTITLE7=カリフォルニアの青い空
TTITLE8=スターウォーズ
TTITLE9=悲しき天使
TTITLE10=禁じられた遊び
TTITLE11=夢幻飛行
EXTD=
EXTT0=
EXTT1=
EXTT2=
EXTT3=
EXTT4=
EXTT5=
EXTT6=
EXTT7=
EXTT8=
EXTT9=
EXTT10=
EXTT11=
PLAYORDER=
